# File created by Blade
# Date/Time:  Tue Sep 30 19:15:05 2014
# Frame Rate: 120.000 fps
#------------------------------------------------------
:FULLY-SPECIFIED
:DEGREES
3440
root -2.066396 34.305832 -2.642195 38.751325 -8.154975 -39.514989
Spine -15.052973 15.910467 20.656942
Head -31.817418 -53.850077 47.792531
LeftShoulder 18.955522 7.590880 28.682968
LeftArm -27.478769 -28.892443 -65.337702
LeftForeArm -145.424929 4.409716 -6.365566
LeftHand 0.000024 39.782713 12.958986
LeftHandThumb1 30.357831 13.997178 22.438692
RightShoulder -17.935959 -21.278456 -15.482546
RightArm 61.756231 12.453511 96.204736
RightForeArm 86.810176 -21.639830 1.177365
RightHand 0.000045 -3.435442 23.171395
RightHandThumb1 30.482666 -12.916435 -20.793814
LeftUpLeg -34.784239 11.532483 30.704123
LeftLeg 21.537001 -0.000000 -0.000000
LeftFoot -18.179990 25.038277 -2.691867
LeftToeBase 3.728500 -0.000000 -0.000000
RightUpLeg -18.234119 -1.794206 -40.939596
RightLeg 110.162697 -0.000000 0.000000
RightFoot 32.373890 -22.811131 -8.555399
RightToeBase 18.260099 0.000000 0.000000
3441
root -2.038496 34.291431 -2.650595 38.854222 -8.293169 -39.353925
Spine -15.150864 15.778569 20.306061
Head -31.691892 -53.857333 47.856097
LeftShoulder 18.869810 7.511026 28.775753
LeftArm -28.037094 -28.683430 -65.598008
LeftForeArm -145.612590 3.885878 -5.655071
LeftHand 0.000002 39.565618 12.733142
LeftHandThumb1 30.357831 13.997178 22.438692
RightShoulder -17.879457 -21.235815 -15.409521
RightArm 61.544130 12.350907 96.143945
RightForeArm 86.771445 -21.653670 1.192412
RightHand 0.000029 -3.427807 23.090161
RightHandThumb1 30.482666 -12.916435 -20.793814
LeftUpLeg -34.941265 11.644098 30.406079
LeftLeg 21.603500 -0.000000 0.000000
LeftFoot -18.371274 24.924464 -3.050227
LeftToeBase 3.642100 0.000000 0.000000
RightUpLeg -18.325116 -2.077118 -40.749219
RightLeg 110.046799 -0.000000 -0.000000
RightFoot 32.388705 -22.700929 -8.592129
RightToeBase 18.299601 -0.000000 -0.000000
3442
root -2.012096 34.278530 -2.660095 38.952077 -8.364900 -39.232554
Spine -15.251214 15.649640 20.063468
Head -31.526429 -53.889191 47.785291
LeftShoulder 18.832040 7.415016 28.854376
LeftArm -28.445021 -28.591720 -65.878508
LeftForeArm -145.796046 3.865917 -5.664834
LeftHand -0.000046 39.551572 11.760713
LeftHandThumb1 30.357831 13.997178 22.438692
RightShoulder -18.049571 -21.284432 -15.484527
RightArm 61.428242 12.012251 96.127636
RightForeArm 86.661875 -21.598679 1.229977
RightHand 0.000040 -3.317909 22.710146
RightHandThumb1 30.482666 -12.916435 -20.793814
LeftUpLeg -35.104590 11.747863 30.168807
LeftLeg 21.649599 0.000000 0.000000
LeftFoot -18.624997 24.765313 -3.401824
LeftToeBase 3.834200 -0.000000 -0.000000
RightUpLeg -18.379362 -2.270273 -40.489888
RightLeg 109.909500 -0.000000 -0.000000
RightFoot 32.410141 -22.676995 -8.342798
RightToeBase 18.282200 -0.000000 0.000000
3443
root -1.990096 34.268631 -2.670995 39.069860 -8.455412 -39.115102
Spine -15.366376 15.551285 19.778076
Head -31.400648 -53.914513 47.758075
LeftShoulder 18.870911 7.401508 28.920523
LeftArm -28.563984 -28.693512 -66.062635
LeftForeArm -145.942830 4.304243 -6.335650
LeftHand -0.000074 39.680934 11.987560
LeftHandThumb1 30.357831 13.997178 22.438692
RightShoulder -17.886332 -21.256914 -15.416211
RightArm 61.217558 12.031534 96.044526
RightForeArm 86.657147 -21.453764 1.223852
RightHand 0.000045 -3.315012 22.822874
RightHandThumb1 30.482666 -12.916435 -20.793814
LeftUpLeg -35.268046 11.887213 29.930886
LeftLeg 21.660601 -0.000000 -0.000000
LeftFoot -18.806594 24.557056 -3.708696
LeftToeBase 4.145600 -0.000000 0.000000
RightUpLeg -18.470799 -2.453649 -40.238826
RightLeg 109.791603 -0.000000 0.000000
RightFoot 32.437671 -22.586800 -8.239479
RightToeBase 18.244101 0.000000 0.000000
3444
root -1.969396 34.257431 -2.677995 39.160929 -8.531537 -38.990585
Spine -15.474622 15.441519 19.501254
Head -31.198762 -53.903751 47.669733
LeftShoulder 18.786608 7.381964 28.971846
LeftArm -28.772594 -28.675294 -66.280450
LeftForeArm -146.079939 4.443346 -6.571805
LeftHand -0.000018 39.676208 11.802786
LeftHandThumb1 30.357831 13.997178 22.438692
RightShoulder -18.007070 -21.306809 -15.355505
RightArm 61.168126 11.851378 95.978913
RightForeArm 86.557291 -21.372354 1.255929
RightHand 0.000010 -3.295385 22.729889
RightHandThumb1 30.482666 -12.916435 -20.793814
LeftUpLeg -35.402580 12.017739 29.681239
LeftLeg 21.653200 0.000000 0.000000
LeftFoot -18.955743 24.459984 -3.934197
LeftToeBase 4.262400 -0.000000 -0.000000
RightUpLeg -18.488278 -2.583817 -39.992694
RightLeg 109.642403 -0.000000 0.000000
RightFoot 32.472633 -22.508086 -8.118247
RightToeBase 18.356701 -0.000000 0.000000
3445
root -1.951096 34.250030 -2.684595 39.254641 -8.564498 -38.917002
Spine -15.569445 15.357749 19.315812
Head -31.061165 -53.867005 47.568671
LeftShoulder 18.630230 7.360789 28.972418
LeftArm -29.014260 -28.617846 -66.447899
LeftForeArm -146.205246 4.466822 -6.637175
LeftHand 0.000005 39.603932 11.375594
LeftHandThumb1 30.357831 13.997178 22.438692
RightShoulder -17.766115 -21.366648 -15.320569
RightArm 61.145331 11.983365 95.934072
RightForeArm 86.479167 -21.414281 1.286891
RightHand 0.000057 -3.265427 22.463304
RightHandThumb1 30.482666 -12.916435 -20.793814
LeftUpLeg -35.541258 12.273583 29.448504
LeftLeg 21.632299 0.000000 0.000000
LeftFoot -19.096379 24.230927 -4.162391
LeftToeBase 4.283300 0.000000 0.000000
RightUpLeg -18.491359 -2.670517 -39.667228
RightLeg 109.487503 -0.000000 -0.000000
RightFoot 32.520375 -22.380818 -8.091729
RightToeBase 18.247200 0.000000 0.000000
